<svg id="Layer_1" data-name="Layer 1" xmlns="http://www.w3.org/2000/svg" xmlns:xlink="http://www.w3.org/1999/xlink" viewBox="0 0 500 500"><defs><style>.cls-1{fill:url(#linear-gradient);}.cls-2{fill:url(#linear-gradient-2);}.cls-3{fill:url(#linear-gradient-3);}.cls-4{font-size:38.98px;fill:#4c4b9e;font-family:LucidaHandwriting-Italic, Lucida Handwriting;font-style:italic;}</style><linearGradient id="linear-gradient" x1="372.21" y1="273.38" x2="128.35" y2="90.28" gradientUnits="userSpaceOnUse"><stop offset="0" stop-color="#4c4b9e"/><stop offset="0.92" stop-color="#488bc9"/></linearGradient><linearGradient id="linear-gradient-2" x1="75.05" y1="241.79" x2="250.06" y2="241.79" gradientUnits="userSpaceOnUse"><stop offset="0.33" stop-color="#488bc9"/><stop offset="1" stop-color="#4c4b9e"/></linearGradient><linearGradient id="linear-gradient-3" x1="249.96" y1="121.45" x2="424.98" y2="121.45" gradientUnits="userSpaceOnUse"><stop offset="0.02" stop-color="#488bc9"/><stop offset="0.63" stop-color="#4c4b9e"/></linearGradient></defs><path class="cls-1" d="M428,181.62a95,95,0,0,1-13.1,48.14,97.81,97.81,0,0,1-164.85,5.68c-1.27-1.85-2.48-3.74-3.61-5.68a93.54,93.54,0,0,1-11.72-35.47c-2.83-21.88-3.75-43.86-23.83-60.8a64.54,64.54,0,0,0-83.14,0,63.31,63.31,0,0,0-17.65,24.07h59.22v24.06H72a95.46,95.46,0,0,1,3.06-24.06c9.55-36.74,45.79-73.19,96.83-72A97.31,97.31,0,0,1,250,127.67q1.95,2.83,3.69,5.82c10.27,17.59,11.27,35.38,13.75,54.32,2,15.27,8.4,30.65,21.88,41.95a64.53,64.53,0,0,0,82.8,0,63.48,63.48,0,0,0,17.75-24.07H330.68V181.62Z"/><path class="cls-2" d="M250.06,235.44a97.83,97.83,0,0,1-165-5.68,95.29,95.29,0,0,1-10-24.07h35.06a63.5,63.5,0,0,0,17.65,24.07,64.54,64.54,0,0,0,83.14,0h35.55C247.58,231.7,248.79,233.59,250.06,235.44Z"/><path class="cls-3" d="M425,157.56H390a63.49,63.49,0,0,0-17.54-24.07,64.53,64.53,0,0,0-83.46,0h-35.3q-1.74-3-3.69-5.82a97.54,97.54,0,0,1,75.58-42.32h10.28a97.49,97.49,0,0,1,79.25,48.14A95.16,95.16,0,0,1,425,157.56Z"/><text class="cls-4" transform="translate(81.56 330.28)"><tspan xml:space="preserve">Gulam  Ghouse</tspan></text></svg>